<?xml version="1.0" standalone="no"?><!DOCTYPE svg PUBLIC "-//W3C//DTD SVG 1.1//EN" "http://www.w3.org/Graphics/SVG/1.1/DTD/svg11.dtd"><svg t="1684661778682" class="icon" viewBox="0 0 1024 1024" version="1.1" xmlns="http://www.w3.org/2000/svg" p-id="2286" xmlns:xlink="http://www.w3.org/1999/xlink" width="200" height="200"><path d="M631.296 357.12l49.408 119.296L800 525.824l-49.44 119.296L800 764.416l-119.328 49.408-49.376 119.296L512 883.712l-119.296 49.408-49.44-119.296L224 764.416l49.408-119.296L224 525.824l119.296-49.408 49.408-119.296L512 406.528l119.328-49.408zM113.76 128l190.528 329.92-59.648 24.704L39.904 128h73.856z m870.336 0l-204.768 354.624-59.616-24.704L910.208 128h73.888z m-110.848 0l-175.968 304.8-48.64-117.472-41.184 17.024L725.44 128h147.808zM298.56 128l117.984 204.352-41.152-17.024-48.704 117.44L150.72 128h147.84z m389.92 0l-129.6 224.448-46.912 19.424-30.848-12.768L614.56 128h73.92z m-279.072 0l85.184 147.52-36.928 64L335.488 128h73.92z" fill="#B19C4A" p-id="2287"></path></svg>